<svg width="512" height="512" viewBox="0 0 512 512" fill="none" xmlns="http://www.w3.org/2000/svg">
<g clip-path="url(#clip0)">
<path d="M502 288.905H488.29C482.972 288.905 477.809 289.579 472.879 290.843C468.335 266.519 457.586 241.812 441.344 218.486L446.841 206.027C450.909 196.806 452.071 186.75 450.574 177.12L464.297 163.396C476.702 169.505 491.976 167.336 502.288 157.023C508.551 150.762 511.999 142.437 511.999 133.581C511.999 124.726 508.551 116.4 502.289 110.139C497.189 105.038 490.572 101.817 483.589 100.795C482.568 93.813 479.346 87.196 474.245 82.094C461.317 69.168 440.286 69.169 427.36 82.094C417.048 92.407 414.879 107.681 420.987 120.086L407.263 133.81C397.634 132.313 387.578 133.475 378.356 137.544L361.083 145.165C322.93 122.975 280.354 111.265 237.677 111.265C206.166 111.265 175.064 117.514 145.236 129.838C117.551 141.277 92.221 157.367 69.949 177.665C26.149 217.579 0 269.542 0 316.666C0 330.608 2.269 343.829 6.737 356.153C2.819 357.507 0 361.219 0 365.597C0 406.401 33.196 439.596 74 439.596H211C216.523 439.596 221 435.119 221 429.596C221 424.073 216.523 419.596 211 419.596H74C47.641 419.596 25.632 400.61 20.928 375.596H21.849C21.856 375.596 21.864 375.598 21.871 375.598C21.879 375.598 21.887 375.596 21.895 375.596L491.072 375.597C486.368 400.61 464.359 419.596 438 419.596H301C295.478 419.596 291 424.073 291 429.596C291 435.119 295.478 439.596 301 439.596H438C478.804 439.596 512 406.4 512 365.596C512 362.944 510.946 360.4 509.071 358.525C507.195 356.65 504.652 355.596 502 355.596H494.645C505.379 344.434 512 329.288 512 312.615V298.906C512 293.382 507.522 288.905 502 288.905V288.905ZM492 308.905V312.614C492 335.811 473.128 354.682 449.932 354.682H446.222V350.973C446.222 327.776 465.094 308.905 488.29 308.905H492ZM454.018 299.259C448.101 303.193 442.892 308.108 438.633 313.779C431.56 304.213 420.204 297.996 407.421 297.996C403.686 297.996 400.077 298.537 396.657 299.527C405.847 291.826 413.308 282.034 418.295 270.73L431.72 240.301C443.531 259.691 451.12 279.741 454.018 299.259V299.259ZM407.421 317.996C417.788 317.996 426.222 326.43 426.222 336.796C426.222 347.162 417.788 355.597 407.421 355.597C397.054 355.597 388.62 347.163 388.62 336.796C388.62 326.429 397.054 317.996 407.421 317.996ZM349.819 317.996C360.186 317.996 368.62 326.43 368.62 336.796C368.62 347.162 360.186 355.597 349.819 355.597C339.453 355.597 331.019 347.163 331.019 336.796C331.019 326.429 339.453 317.996 349.819 317.996ZM441.19 114.502C436.327 109.299 436.463 101.275 441.504 96.236C446.632 91.108 454.976 91.108 460.104 96.235C463.391 99.522 464.686 104.185 463.57 108.708C462.73 112.108 463.73 115.7 466.207 118.176C468.684 120.653 472.275 121.654 475.675 120.814C480.199 119.697 484.862 120.993 488.149 124.28C490.633 126.764 492.002 130.067 492.002 133.58C492.002 137.093 490.634 140.396 488.149 142.88C483.111 147.919 475.088 148.058 469.882 143.193C465.944 139.512 459.796 139.615 455.983 143.427L442.765 156.645C440.839 153.681 438.602 150.889 436.049 148.336C433.496 145.782 430.704 143.545 427.739 141.62L440.957 128.402C444.769 124.59 444.872 118.441 441.19 114.502V114.502ZM386.431 155.841C390.528 154.034 394.891 153.157 399.232 153.157C407.572 153.157 415.823 156.394 421.907 162.478C431.157 171.728 433.824 185.985 428.544 197.954L399.997 262.657C391.97 280.853 376.154 293.386 356.605 297.043C337.056 300.699 317.777 294.732 303.715 280.67C289.652 266.608 283.684 247.33 287.341 227.781C290.998 208.232 303.532 192.416 321.727 184.388L386.431 155.841ZM83.421 192.446C126.716 152.992 181.499 131.264 237.679 131.264C272.018 131.264 306.328 139.559 337.932 155.378L313.655 166.089C289.686 176.664 272.5 198.351 267.682 224.102C262.865 249.853 271.048 276.287 289.573 294.811C297.985 303.222 308.028 309.498 318.895 313.396C313.957 319.906 311.02 328.013 311.02 336.796C311.02 343.614 312.794 350.023 315.895 355.597H226.05C228.896 350.309 230.526 344.276 230.548 337.873C230.584 327.736 226.663 318.198 219.508 311.018C212.352 303.837 202.828 299.882 192.691 299.882H183.818C186.009 273.101 170.938 247.179 145.313 236.316L135.267 232.058C131.49 230.457 127.112 231.326 124.233 234.255C121.354 237.184 120.559 241.574 122.227 245.326C128.419 259.259 126.345 275.308 116.814 287.21L93.14 316.772C84.361 327.735 82.684 342.411 88.765 355.071C88.851 355.251 88.952 355.42 89.041 355.597H28.078C22.717 343.738 20 330.671 20 316.666C20 275.074 43.709 228.636 83.421 192.446V192.446ZM145.704 259.296C160.581 269.835 167.587 288.917 162.238 307.053C161.346 310.077 161.933 313.345 163.821 315.87C165.709 318.395 168.677 319.882 171.83 319.882H192.689C197.471 319.882 201.963 321.748 205.338 325.135C208.714 328.522 210.563 333.021 210.546 337.802C210.512 347.614 202.501 355.597 192.689 355.597H121.393C115.012 355.597 109.554 352.164 106.791 346.412C104.028 340.661 104.761 334.254 108.749 329.274L132.423 299.711C141.777 288.031 146.319 273.672 145.704 259.296V259.296Z" fill="#E2866D"/>
<path d="M256 419.6C253.37 419.6 250.79 420.66 248.93 422.52C247.07 424.39 246 426.96 246 429.6C246 432.23 247.069 434.81 248.93 436.67C250.79 438.53 253.37 439.6 256 439.6C258.63 439.6 261.21 438.53 263.069 436.67C264.929 434.8 266 432.23 266 429.6C266 426.97 264.93 424.39 263.069 422.52C261.21 420.66 258.63 419.6 256 419.6Z" fill="#E2866D"/>
</g>
<defs>
<clipPath id="clip0">
<rect width="512" height="512" fill="white"/>
</clipPath>
</defs>
</svg>
