<svg width="512" height="512" viewBox="0 0 512 512" fill="none" xmlns="http://www.w3.org/2000/svg">
<path d="M432 240H112.808L235.032 123.584C241.432 117.488 241.68 107.36 235.584 100.96C229.496 94.568 219.368 94.312 212.96 100.408L73.376 233.368C67.336 239.416 64 247.448 64 256C64 264.544 67.336 272.584 73.656 278.896L212.968 411.584C216.064 414.536 220.032 416 224 416C228.224 416 232.448 414.336 235.592 411.032C241.688 404.632 241.44 394.512 235.04 388.416L112.304 272H432C440.832 272 448 264.832 448 256C448 247.168 440.832 240 432 240V240Z" fill="#1E2744"/>
</svg>
