<svg width="512" height="474" viewBox="0 0 512 474" fill="none" xmlns="http://www.w3.org/2000/svg">
<path d="M200.338 181.819C192.153 176.557 158.864 157.972 149.511 154.679C145.35 153.215 140.793 155.399 139.33 159.557C137.865 163.716 140.05 168.275 144.208 169.738C151.49 172.302 183.824 190.183 191.705 195.249C193.041 196.108 194.535 196.518 196.014 196.518C198.64 196.518 201.212 195.224 202.737 192.85C205.122 189.143 204.048 184.204 200.338 181.819Z" fill="#E2866D"/>
<path d="M189.541 111.793C187.636 107.817 182.866 106.14 178.891 108.045C174.915 109.951 173.237 114.719 175.143 118.695C180.137 129.116 210.658 182.918 211.955 185.203C213.425 187.794 216.126 189.248 218.906 189.248C220.241 189.248 221.595 188.912 222.839 188.206C226.674 186.03 228.019 181.157 225.842 177.322C225.527 176.769 194.301 121.721 189.541 111.793Z" fill="#E2866D"/>
<path d="M494.628 50.336L386.979 3.519C381.82 1.275 376.017 1.517 371.059 4.179C366.102 6.842 362.699 11.548 361.721 17.09L354.932 55.595C353.863 61.655 354.757 67.671 357.231 72.922C353.317 75.684 350.655 79.854 349.81 84.649L343.021 123.154C341.953 129.214 342.848 135.23 345.32 140.481C341.406 143.242 338.744 147.413 337.898 152.208L331.109 190.712C330.04 196.772 330.935 202.788 333.408 208.039C329.922 210.499 327.439 214.079 326.337 218.22L267.719 193.874C265.136 192.801 263.123 190.788 262.05 188.205L194.171 24.779C190.046 14.849 180.361 8.466 169.698 8.466H169.591L148.928 1.578C143.255 -0.312001 137.107 1.139 132.88 5.367C128.653 9.594 127.202 15.743 129.092 21.413L129.464 22.525L128.352 22.153C122.679 20.263 116.531 21.713 112.305 25.941C108.078 30.168 106.626 36.317 108.517 41.988L108.888 43.101L107.776 42.729C102.105 40.84 95.955 42.289 91.729 46.517C87.502 50.744 86.05 56.893 87.94 62.564L88.31 63.675L87.199 63.305C81.526 61.417 75.378 62.867 71.152 67.094C66.925 71.321 65.474 77.47 67.364 83.14L67.736 84.253L66.624 83.882C60.953 81.993 54.804 83.442 50.577 87.67C46.35 91.897 44.898 98.046 46.788 103.717L47.158 104.828L46.047 104.458C40.375 102.569 34.226 104.019 30 108.247C25.773 112.474 24.321 118.623 26.212 124.293L33.1 144.957C33.056 155.662 39.448 165.399 49.413 169.536L212.838 237.413C215.38 238.469 217.366 240.439 218.451 242.964C185.334 223.271 146.35 215.639 108.107 221.485C68.656 227.512 32.687 247.37 6.82998 277.403C1.48798 283.606 -0.888023 291.808 0.311977 299.903C1.51098 307.992 6.15698 315.143 13.058 319.524L60.631 349.726C72.646 357.352 87.96 356.177 98.737 346.797C116.121 331.667 141.843 329.722 161.286 342.067C180.866 354.498 190.011 378.738 183.524 401.015C179.656 414.297 185.274 428.855 197.186 436.418L244.755 466.617C249.311 469.509 254.541 470.998 259.823 470.998C262.542 470.998 265.274 470.603 267.934 469.803C275.771 467.444 282.183 461.805 285.524 454.332C290.634 442.903 294.4 431.007 296.805 418.788C300.189 420.898 304.055 422.243 308.156 422.659C309.46 423.498 310.841 424.248 312.303 424.884L419.952 471.7C422.296 472.719 424.772 473.226 427.241 473.226C430.209 473.226 433.166 472.494 435.871 471.041C440.828 468.378 444.232 463.672 445.209 458.13L451.998 419.626C453.067 413.566 452.171 407.55 449.699 402.299C453.613 399.537 456.275 395.367 457.121 390.572L463.91 352.068C464.979 346.008 464.085 339.992 461.611 334.741C465.525 331.979 468.187 327.809 469.033 323.014L475.822 284.51C476.891 278.45 475.997 272.434 473.523 267.183C477.437 264.421 480.099 260.251 480.945 255.456L487.734 216.952C488.803 210.891 487.909 204.876 485.435 199.625C489.349 196.863 492.011 192.693 492.856 187.898L499.645 149.394C500.713 143.334 499.818 137.317 497.346 132.067C501.26 129.305 503.922 125.135 504.768 120.34L511.557 81.836C513.882 68.638 506.921 55.683 494.628 50.336ZM270.941 447.822C269.494 451.059 266.718 453.5 263.325 454.522C259.889 455.556 256.332 455.067 253.305 453.145L205.736 422.947C199.786 419.169 196.952 411.99 198.846 405.488C207.307 376.431 195.377 344.812 169.836 328.597C144.471 312.493 110.921 315.029 88.248 334.763C82.845 339.466 75.182 340.065 69.181 336.256L21.608 306.053C18.581 304.132 16.624 301.119 16.098 297.57C15.579 294.066 16.608 290.515 18.92 287.828C42.294 260.681 74.821 242.728 110.509 237.276C146.542 231.772 183.303 239.483 214.026 258.986C219.562 262.501 224.898 266.424 229.938 270.633L283.421 399.4C281.993 416.193 277.804 432.475 270.941 447.822ZM302.159 354.884L296.217 388.582L233.245 236.967C230.541 230.456 225.466 225.381 218.955 222.676L55.531 154.799C50.395 152.666 48.85 147.831 49.086 144.338C49.156 143.3 49.023 142.259 48.694 141.273L41.535 119.793L57.252 125.032C60.12 125.986 63.283 125.241 65.422 123.103C67.56 120.965 68.307 117.802 67.351 114.933L62.112 99.214L77.831 104.453C80.7 105.407 83.862 104.663 86.001 102.524C88.139 100.386 88.887 97.223 87.93 94.354L82.691 78.635L98.409 83.874C101.274 84.828 104.44 84.084 106.579 81.945C108.717 79.807 109.464 76.644 108.508 73.775L103.269 58.056L118.988 63.295C121.858 64.249 125.019 63.504 127.158 61.366C129.296 59.228 130.044 56.065 129.087 53.196L123.848 37.477L139.566 42.716C142.431 43.67 145.596 42.926 147.736 40.787C149.874 38.65 150.621 35.487 149.665 32.617L144.427 16.898L165.906 24.059C166.893 24.388 167.936 24.521 168.971 24.451C172.468 24.216 177.299 25.76 179.432 30.896L247.309 194.319C250.013 200.829 255.088 205.904 261.599 208.609L323.428 234.29L320.064 253.365C301.231 242.908 278.87 230.222 278.604 230.071C274.768 227.895 269.896 229.24 267.72 233.074C265.544 236.909 266.889 241.781 270.723 243.958C271.027 244.13 300.09 260.618 319.959 271.553C320.372 272.938 320.887 274.288 321.5 275.589C317.586 278.351 314.924 282.521 314.078 287.316L307.289 325.82C306.22 331.88 307.115 337.896 309.588 343.147C305.668 345.918 303.005 350.087 302.159 354.884ZM436.268 416.861L429.479 455.365C429.312 456.317 428.674 456.787 428.308 456.984C427.943 457.18 427.198 457.452 426.312 457.067L318.664 410.25C313.166 407.858 310.053 402.065 311.094 396.16L317.883 357.656C318.05 356.704 318.688 356.234 319.054 356.037C319.284 355.914 319.665 355.76 320.138 355.76C320.415 355.76 320.722 355.812 321.049 355.955L324.123 357.292L428.687 402.767C428.708 402.777 428.727 402.788 428.749 402.798C434.213 405.202 437.304 410.986 436.268 416.861ZM448.18 349.302L441.392 387.806C441.224 388.758 440.586 389.228 440.22 389.425C439.856 389.621 439.113 389.892 438.225 389.507L435.15 388.17C435.121 388.157 435.091 388.15 435.063 388.137L435.066 388.128L330.513 342.658C325.058 340.249 321.971 334.47 323.007 328.6L329.796 290.096C329.963 289.145 330.601 288.674 330.967 288.477C331.332 288.281 332.077 288.01 332.962 288.395L336.036 289.732C336.066 289.745 336.096 289.753 336.125 289.765L336.122 289.774L440.669 335.242C446.127 337.649 449.216 343.429 448.18 349.302ZM460.092 281.744L453.303 320.248C453.136 321.2 452.498 321.67 452.132 321.866C451.767 322.062 451.022 322.333 450.137 321.949L342.491 275.134C342.472 275.126 342.455 275.115 342.436 275.106C336.974 272.7 333.882 266.917 334.918 261.043L341.707 222.539C341.874 221.587 342.512 221.116 342.878 220.92C343.243 220.724 343.987 220.452 344.873 220.837L347.947 222.174L452.515 267.65C452.535 267.66 452.553 267.67 452.574 267.679C458.037 270.085 461.129 275.868 460.092 281.744ZM472.006 214.185L465.217 252.689C465.05 253.641 464.411 254.112 464.046 254.308C463.68 254.505 462.936 254.775 462.051 254.391L458.976 253.053C458.946 253.04 458.916 253.032 458.887 253.02L458.89 253.012L354.347 207.547C348.885 205.141 345.795 199.359 346.831 193.485L353.621 154.981C353.788 154.03 354.426 153.559 354.791 153.363C355.156 153.167 355.901 152.896 356.787 153.28L359.862 154.617C359.891 154.63 359.921 154.638 359.95 154.65L359.946 154.658L464.494 200.126C469.952 202.532 473.041 208.312 472.006 214.185ZM483.918 146.627L477.128 185.131C476.961 186.082 476.323 186.553 475.958 186.749C475.593 186.945 474.849 187.217 473.962 186.832L366.319 140.018C366.299 140.01 366.281 139.998 366.26 139.988C360.797 137.583 357.706 131.8 358.742 125.926L365.531 87.421C365.698 86.469 366.336 85.999 366.701 85.803C367.065 85.607 367.811 85.335 368.697 85.72L476.34 132.534C476.36 132.543 476.378 132.554 476.399 132.564C481.862 134.968 484.953 140.751 483.918 146.627ZM495.83 79.068L489.04 117.572C488.873 118.523 488.235 118.994 487.87 119.19C487.505 119.386 486.76 119.657 485.874 119.273L482.799 117.936C482.77 117.923 482.74 117.915 482.711 117.903L482.715 117.895L378.167 72.426C372.709 70.019 369.62 64.239 370.655 58.367L377.444 19.863C377.611 18.912 378.249 18.441 378.615 18.244C378.98 18.048 379.724 17.776 380.61 18.161L488.258 64.977C493.758 67.369 496.871 73.162 495.83 79.068Z" fill="#E2866D"/>
<path d="M274.102 255.582C271.717 251.872 266.776 250.798 263.069 253.184C259.361 255.568 258.286 260.507 260.671 264.217C265.736 272.096 283.617 304.429 286.182 311.714C287.338 314.996 290.421 317.048 293.712 317.048C294.592 317.048 295.486 316.901 296.364 316.592C300.523 315.127 302.707 310.568 301.242 306.411C297.946 297.053 279.362 263.765 274.102 255.582Z" fill="#E2866D"/>
</svg>
