<svg width="511" height="511" viewBox="0 0 511 511" fill="none" xmlns="http://www.w3.org/2000/svg">
<g clip-path="url(#clip0)">
<path d="M455.98 8.34697C450.019 2.63156 442.194 -0.319706 433.945 0.0272719C359.937 3.16957 286.198 23.0916 220.705 57.6491C155.223 92.1989 97.1919 141.79 52.8878 201.061C47.9404 207.677 45.9638 215.813 47.3244 223.965C48.6889 232.121 53.1997 239.178 60.0301 243.833L100.217 271.217L100.221 271.22L124.081 287.478V308.3C124.081 313.813 128.549 318.281 134.061 318.281C139.574 318.281 144.042 313.813 144.042 308.3V282.203C144.042 278.901 142.408 275.813 139.683 273.953L119.824 260.421C128.627 248.168 138.1 236.425 148.17 225.189C158.521 213.638 169.547 202.636 181.184 192.37C192.385 182.491 204.05 173.158 216.229 164.507C228.884 155.521 242.046 147.302 255.605 139.751C269.188 132.179 283.278 125.45 297.656 119.524C299.457 118.784 301.266 118.051 303.079 117.33C302.982 124.846 304.447 132.359 307.504 139.466C313.231 152.78 323.8 163.068 337.266 168.429C343.765 171.022 350.564 172.312 357.356 172.312C364.635 172.312 371.906 170.827 378.791 167.868C392.104 162.137 402.389 151.567 407.754 138.105C413.118 124.639 412.915 109.895 407.188 96.581C406.424 94.7993 405.555 93.0683 404.607 91.3802C418.101 89.7116 431.676 88.7174 445.266 88.3899V339.306C429.06 344.866 416.315 357.953 411.138 374.289C405.407 392.375 409.793 412.636 422.432 426.768C428.596 433.661 436.522 438.897 445.266 441.891V482.184L398.358 450.219C395.297 448.137 391.34 447.911 388.069 449.642C384.802 451.373 382.755 454.768 382.755 458.468V481.607C382.755 486.663 378.642 490.772 373.59 490.772C368.537 490.772 364.424 486.659 364.424 481.607V432.375C364.424 431.15 364.198 429.957 363.781 428.846C377.835 413.396 382.065 390.659 373.535 370.835C361.715 343.353 329.734 330.612 302.249 342.437C290.884 347.326 281.617 356.012 275.863 366.749L262.354 357.544C259.297 355.462 255.34 355.24 252.069 356.967C248.798 358.698 246.751 362.094 246.751 365.79V404.176C246.751 409.228 242.642 413.338 237.59 413.338C232.537 413.338 228.424 409.224 228.424 404.176V339.7C228.424 336.398 226.79 333.31 224.065 331.451L177.972 300.047C174.919 297.965 170.958 297.739 167.687 299.47C164.416 301.197 162.373 304.597 162.373 308.293V441.692C162.373 446.749 158.26 450.858 153.208 450.858C148.155 450.858 144.046 446.745 144.046 441.692V388.148C144.046 382.636 139.574 378.168 134.061 378.168C128.549 378.168 124.081 382.636 124.081 388.148V441.692C124.081 457.755 137.149 470.819 153.208 470.819C169.266 470.819 182.334 457.755 182.334 441.692V327.174L208.463 344.975V404.176C208.463 420.234 221.527 433.299 237.59 433.299C253.648 433.299 266.716 420.234 266.716 404.176V384.671L274.982 390.304C274.985 390.304 274.985 390.308 274.989 390.308L343.348 436.889L344.463 437.649V481.607C344.463 497.665 357.527 510.733 373.59 510.733C389.648 510.733 402.717 497.665 402.717 481.607V477.341L449.629 509.31C456.14 513.747 465.231 508.905 465.231 501.061V30.0195C465.227 21.7583 461.945 14.0624 455.98 8.34697V8.34697ZM292.467 378.063C295.952 370.339 302.151 364.207 310.136 360.772C327.512 353.298 347.722 361.349 355.2 378.721C360.728 391.579 357.781 406.375 348.342 416.137L311.414 390.975L292.467 378.063ZM67.0164 220.682C66.5603 217.949 67.2231 215.228 68.8761 213.01C111.418 156.098 167.141 108.48 230.019 75.3022C292.915 42.117 363.718 22.9864 434.787 19.9727C434.935 19.9649 435.083 19.961 435.227 19.961C437.824 19.961 440.276 20.9435 442.167 22.7563C444.163 24.6745 445.262 27.2515 445.262 30.0156V68.4094C429.305 68.772 413.364 70.0351 397.547 72.156C393.036 72.7642 388.518 73.3996 384.03 74.1404C359.898 78.1365 335.968 84.234 312.907 92.2652C296.592 97.9455 280.631 104.78 265.087 112.308C249.313 119.942 234.003 128.671 219.332 138.253C204.903 147.68 191.044 157.918 177.796 168.94C164.432 180.062 151.824 192.066 139.878 204.694C128.151 217.096 117.235 230.285 107.083 243.996C105.812 245.712 104.553 247.435 103.309 249.166L71.2699 227.333C68.9853 225.778 67.4726 223.415 67.0164 220.682ZM389.208 130.714C385.816 139.224 379.317 145.907 370.9 149.528C362.483 153.146 353.165 153.275 344.654 149.883C336.143 146.495 329.461 139.992 325.839 131.575C322.826 124.565 322.237 116.924 324.085 109.649C339.06 104.628 354.342 100.406 369.808 97.193C374.034 96.3158 378.264 95.4776 382.51 94.7174C385.161 97.5634 387.286 100.827 388.849 104.468C392.471 112.885 392.596 122.203 389.208 130.714ZM431.383 404.156C427.761 395.743 427.637 386.421 431.025 377.911C433.847 370.827 438.826 365.014 445.266 361.174V420.031C439.169 416.386 434.28 410.889 431.383 404.156V404.156Z" fill="#E2866D"/>
<path d="M211.757 295.049C218.256 297.638 225.056 298.928 231.847 298.928C239.126 298.928 246.397 297.447 253.282 294.484C280.763 282.659 293.504 250.679 281.679 223.197C275.952 209.883 265.383 199.595 251.917 194.234C238.455 188.87 223.707 189.068 210.393 194.799C197.079 200.526 186.794 211.096 181.43 224.562C176.065 238.024 176.268 252.772 181.995 266.086C187.722 279.4 198.291 289.684 211.757 295.049ZM199.976 231.949C203.364 223.439 209.866 216.756 218.284 213.135C222.634 211.263 227.231 210.324 231.831 210.324C236.124 210.324 240.42 211.142 244.529 212.78C253.04 216.168 259.722 222.671 263.344 231.084C270.818 248.456 262.763 268.671 245.391 276.144C236.978 279.766 227.656 279.891 219.145 276.503C210.634 273.111 203.952 266.608 200.334 258.195C196.712 249.778 196.584 240.456 199.976 231.949V231.949Z" fill="#E2866D"/>
<path d="M359.601 315.501C366.1 318.094 372.9 319.384 379.691 319.384C386.97 319.384 394.241 317.899 401.126 314.936C414.44 309.209 424.724 298.64 430.089 285.178C435.453 271.712 435.255 256.967 429.524 243.649C423.796 230.339 413.227 220.051 399.765 214.686C386.299 209.322 371.551 209.525 358.241 215.252C344.927 220.979 334.638 231.548 329.274 245.014C323.913 258.48 324.112 273.224 329.839 286.538C335.566 299.852 346.136 310.141 359.601 315.501V315.501ZM347.82 252.402C351.208 243.891 357.711 237.213 366.128 233.591C370.479 231.72 375.075 230.78 379.676 230.78C383.968 230.78 388.264 231.595 392.373 233.232C400.884 236.624 407.566 243.127 411.188 251.54C414.806 259.957 414.935 269.279 411.543 277.79C408.151 286.297 401.652 292.979 393.235 296.601C384.822 300.219 375.5 300.347 366.989 296.955C358.479 293.568 351.796 287.065 348.175 278.651C344.557 270.234 344.432 260.913 347.82 252.402V252.402Z" fill="#E2866D"/>
<path d="M134.069 358.211C138.291 358.211 142.135 355.439 143.504 351.458C144.876 347.47 143.512 342.862 140.143 340.3C136.911 337.844 132.428 337.599 128.938 339.669C125.328 341.809 123.445 346.148 124.299 350.254C125.254 354.827 129.391 358.211 134.069 358.211Z" fill="#E2866D"/>
</g>
<defs>
<clipPath id="clip0">
<rect width="511" height="511" fill="white"/>
</clipPath>
</defs>
</svg>
