<svg width="480" height="480" viewBox="0 0 480 480" fill="none" xmlns="http://www.w3.org/2000/svg">
<path d="M180.746 147.465C172.316 128.254 167.977 107.504 168 86.5273V48C172.418 48 176 44.418 176 40V8C176 3.58203 172.418 0 168 0H104C99.582 0 96 3.58203 96 8V40C96 44.418 99.582 48 104 48V86.5273C104.023 107.504 99.6836 128.254 91.2578 147.465L68.8008 198.809C55.043 230.137 47.957 263.984 48 298.199V472C48 476.418 51.582 480 56 480H216C220.418 480 224 476.418 224 472V298.199C224.043 263.984 216.961 230.137 203.199 198.809L180.746 147.465ZM112 16H160V32H112V16ZM208 464H64V298.199C63.9609 266.188 70.5859 234.52 83.457 205.207L105.914 153.863C115.227 132.641 120.023 109.707 120 86.5273V48H152V86.5273C151.977 109.707 156.773 132.641 166.09 153.863L188.543 205.207C201.414 234.52 208.039 266.188 208 298.199V464Z" fill="#E2866D"/>
<path d="M152.566 202.832L159.223 218.031C162.66 225.91 165.59 233.996 168 242.246C169 245.656 172.125 248 175.68 248C176.441 248 177.199 247.891 177.93 247.68C182.172 246.441 184.602 241.992 183.359 237.754C180.746 228.852 177.566 220.125 173.848 211.625L167.191 196.426C166.109 193.715 163.637 191.813 160.742 191.457C157.844 191.102 154.988 192.352 153.277 194.715C151.57 197.082 151.289 200.188 152.535 202.824L152.566 202.832Z" fill="#E2866D"/>
<path d="M142.25 179.199C143.52 182.117 146.402 184 149.586 184C150.688 184.004 151.777 183.773 152.785 183.328C156.828 181.555 158.672 176.844 156.902 172.801L151.426 160.258C149.574 156.352 144.953 154.621 140.992 156.352C137.031 158.078 135.16 162.645 136.77 166.656L142.25 179.199Z" fill="#E2866D"/>
<path d="M88 280C83.582 280 80 283.582 80 288V424C80 428.418 83.582 432 88 432H184C188.418 432 192 428.418 192 424V288C192 283.582 188.418 280 184 280H88ZM176 416H96V296H176V416Z" fill="#E2866D"/>
<path d="M406.398 460.801C390.562 448.977 371.703 441.875 352 440.32V327.594C397.277 323.422 431.941 285.469 432 240C432 239.621 431.977 239.238 431.922 238.863L427.711 209.375V209.32L415.922 126.863C415.355 122.926 411.98 120 408 120H280C276.02 120 272.645 122.926 272.082 126.863L256.082 238.863C256.027 239.238 256 239.621 256 240C256.059 285.469 290.723 323.422 336 327.594V440.328C316.297 441.883 297.438 448.98 281.602 460.809L275.199 465.609C272.453 467.676 271.332 471.27 272.422 474.531C273.512 477.793 276.562 479.996 280 480H408C411.445 480 414.5 477.797 415.59 474.531C416.68 471.262 415.555 467.668 412.801 465.602L406.398 460.801ZM286.938 136H401.062L410.664 203.199L395.266 204.922C377.77 206.879 360.059 205.406 343.129 200.574L342.176 200.297C322.52 194.715 301.938 193.164 281.664 195.734L278.344 196.145L286.938 136ZM272 240.551L276 212.551L283.633 211.617C301.73 209.293 320.113 210.652 337.672 215.617L338.609 215.895C357.582 221.332 377.434 222.996 397.047 220.793L412.93 219.016L416 240.551C416 280.316 383.766 312.551 344 312.551C304.234 312.551 272 280.316 272 240.551V240.551ZM307.391 464C330.68 453.559 357.32 453.559 380.609 464H307.391Z" fill="#E2866D"/>
</svg>
